<svg xmlns="http://www.w3.org/2000/svg" width="20" height="20" viewBox="0 0 20 20"><defs><style>.a{fill:#81f7e3;}</style></defs><path class="a" d="M11.875,0H2.292A2.29,2.29,0,0,0,0,2.292V15.208A2.29,2.29,0,0,0,2.292,17.5H9.075a5.948,5.948,0,0,1-1.158-3.542,6.046,6.046,0,0,1,6.042-6.042,1.742,1.742,0,0,1,.208.008V2.292A2.29,2.29,0,0,0,11.875,0ZM3.333,3.333H6.667A.833.833,0,1,1,6.667,5H3.333a.833.833,0,0,1,0-1.667ZM7.5,11.667H3.333a.833.833,0,1,1,0-1.667H7.5a.833.833,0,0,1,0,1.667Zm3.333-3.333h-7.5a.833.833,0,1,1,0-1.667h7.5a.833.833,0,0,1,0,1.667Z"/><path class="a" d="M15.875,20.25a4.375,4.375,0,1,1,4.375-4.375A4.38,4.38,0,0,1,15.875,20.25Zm0-7.083a2.708,2.708,0,1,0,2.708,2.708A2.711,2.711,0,0,0,15.875,13.167Z" transform="translate(-1.917 -1.917)"/><path class="a" d="M22.292,23.125a.831.831,0,0,1-.589-.244l-2.708-2.708a.833.833,0,1,1,1.178-1.178L22.881,21.7a.833.833,0,0,1-.589,1.422Z" transform="translate(-3.125 -3.125)"/></svg>